<svg xmlns="http://www.w3.org/2000/svg" xmlns:xlink="http://www.w3.org/1999/xlink" viewBox="0 0 1482 1050">  <style>    svg { font : caption; }      .idvc2_chart_axis { fill: none; stroke: gray; stroke-width: 1; vector-effect: non-scaling-stroke; shape-rendering: crispEdges; }      .idvc2_chart_axis_text { fill: #333; font-size: 95%; stroke: none; stroke-width: 1; vector-effect: non-scaling-stroke; }      .idvc2_chart_roofline_text { fill: gray; font-size: 90%; }      .idvc2_chart_roofline_text.selected { fill: #000; }      .idvc2_chart_roofline_text.hidden { fill: none; }      .idvc2_chart_roofline_explanation { fill: none; }      .idvc2_chart_roofline_center_marker { stroke: #000; stroke-width: 1 }      .roofline_child_line { stroke: none; fill: none; }      .roofline_parent_line { stroke: none; fill: none; }      .roofline_child_arrow { stroke: none; fill: none; }      .roofline_parent_arrow { stroke: none; fill: none; }      .roofline_loop { stroke: #000; stroke-width: 1; vector-effect: non-scaling-stroke; shape-rendering: geometricPrecision; fill: lightgray; }      .roofline_loop.no_loop_position { stroke: darkgray; fill: #eee; }      .roofline_loop.loop_inactive_result { opacity: 0.4; }      .idvc2_roofline_line { stroke: #999; stroke-dasharray: 4,4; fill: none; stroke-width: 1; vector-effect: non-scaling-stroke; shape-rendering: crispEdges; }      .idvc2_roofline_grid_line { stroke: #ddd; fill: none; stroke-width: 1; vector-effect: non-scaling-stroke; shape-rendering: crispEdges; }      .idvc2_roofline_line.selected { stroke: #000; shape-rendering: auto; stroke-dasharray: none; }      .idvc2_roofline_line_hotarea { stroke: none; fill: none; }      .roofline_roofs_cross { stroke: none; fill: none; }      .roofline_coord_line { stroke: none; fill: none; stroke-width: 1; vector-effect: non-scaling-stroke; shape-rendering: crispEdges; }      .roofline_coord_line.selected { stroke: gray; stroke-dasharray: none !important; }      .roofline_expander { stroke: none; fill: none; }      .roofline_expander_vert_line { stroke: none; fill: none; }      .roofline_expander_horz_line { stroke: none; fill: none; }      .idvc2_roofline_roof_crossing { stroke: none; fill: none; }      .idvc2_roofline_roof_crossing_line { stroke: none; fill: none; }      .idvc2_roofline_roof_crossing_label { stroke: none; fill: none; }      .idvc2_roofline_loops_matching_line { stroke: black; stroke-dasharray: 4,4; fill: none; vector-effect: non-scaling-stroke; shape-rendering: crispEdges; }      .idvc2_roofline_loops_matching_arrow { stroke: #000; fill: black; vector-effect: non-scaling-stroke; shape-rendering: geometricPrecision; }      .idvc2_roofline_loops_matching_label { font-size: 100%; }      .idvc2_roofline_total_value_tick_active { stroke: none; fill: none; }      .idvc2_roofline_total_value_tick { stroke: none; fill: none; }      .stairs_delta_line {stroke-width: 2;vector-effect: non-scaling-stroke;shape-rendering: geometricPrecision;}      .stairs_connection_line {stroke: black;stroke-width: 1;stroke-dasharray: 2,2;vector-effect: non-scaling-stroke;shape-rendering: geometricPrecision;}      .stairs_delta_ends {stroke-width: 3;vector-effect: non-scaling-stroke;shape-rendering: geometricPrecision;}      .dumbbell_line {stroke: #2D3741;stroke-width: 1.5;fill: none;vector-effect: non-scaling-stroke;shape-rendering: geometricPrecision;}      .zone_text_root {position: relative; overflow: visible;}       .zone_text_container {position: absolute; left: 0; bottom: 0; right: 0; text-align: center; overflow-wrap: break-word; word-wrap: break-word; hyphens: auto; color: rgb(160, 0, 0); background: transparent; opacity: 0.6;}      .zone_text_caption {min-width: 0; pointer-events: none;}      .zone_text_explanation {font-size: 800vertical-align: super;}      .idvc2_hidden { stroke: none !important; fill: none !important; }  </style>  <g>    <svg id="vert_axis" viewBox="0 0 68 1026" width="68" height="1026">      <line x1="67.58898162841797" y1="0" x2="67.58898162841797" y2="1026.0040283203125" class="idvc2_chart_axis"></line><line x1="62.08898162841797" y1="947" x2="68.08898162841797" y2="947" class="idvc2_chart_axis"></line><line x1="62.08898162841797" y1="947" x2="68.08898162841797" y2="947" class="idvc2_chart_axis_hot"></line><text x="58.08898162841797" y="947" class="idvc2_chart_axis_text" style="text-anchor: end;dominant-baseline: middle">0.01</text><line x1="62.08898162841797" y1="776" x2="68.08898162841797" y2="776" class="idvc2_chart_axis"></line><line x1="62.08898162841797" y1="776" x2="68.08898162841797" y2="776" class="idvc2_chart_axis_hot"></line><text x="58.08898162841797" y="776" class="idvc2_chart_axis_text" style="text-anchor: end;dominant-baseline: middle">0.1</text><line x1="62.08898162841797" y1="605" x2="68.08898162841797" y2="605" class="idvc2_chart_axis"></line><line x1="62.08898162841797" y1="605" x2="68.08898162841797" y2="605" class="idvc2_chart_axis_hot"></line><text x="58.08898162841797" y="605" class="idvc2_chart_axis_text" style="text-anchor: end;dominant-baseline: middle">1</text><line x1="62.08898162841797" y1="434" x2="68.08898162841797" y2="434" class="idvc2_chart_axis"></line><line x1="62.08898162841797" y1="434" x2="68.08898162841797" y2="434" class="idvc2_chart_axis_hot"></line><text x="58.08898162841797" y="434" class="idvc2_chart_axis_text" style="text-anchor: end;dominant-baseline: middle">10</text><line x1="62.08898162841797" y1="262" x2="68.08898162841797" y2="262" class="idvc2_chart_axis"></line><line x1="62.08898162841797" y1="262" x2="68.08898162841797" y2="262" class="idvc2_chart_axis_hot"></line><text x="58.08898162841797" y="262" class="idvc2_chart_axis_text" style="text-anchor: end;dominant-baseline: middle">100</text><line x1="62.08898162841797" y1="91" x2="68.08898162841797" y2="91" class="idvc2_chart_axis"></line><line x1="62.08898162841797" y1="91" x2="68.08898162841797" y2="91" class="idvc2_chart_axis_hot"></line><text x="58.08898162841797" y="91" class="idvc2_chart_axis_text" style="text-anchor: end;dominant-baseline: middle">1000</text><defs><marker id="SVG_1_TotalValue" markerWidth="6" markerHeight="10" refX="1" refY="5" orient="auto" markerUnits="userSpaceOnUse"><path d="M 0 0 L 0 10 L 6 5 L 0 0" class="idvc2_roofline_total_value_tick"></path></marker><marker id="SVG_1_TotalValueActive" markerWidth="6" markerHeight="10" refX="1" refY="5" orient="auto" markerUnits="userSpaceOnUse"><path d="M 0 0 L 0 10 L 6 5 L 0 0" class="idvc2_roofline_total_value_tick_active"></path></marker></defs><line x1="62.08898162841797" y1="276" x2="68.08898162841797" y2="276" class="idvc2_chart_axis idvc2_active" style="stroke: transparent; stroke-width:10; marker-start:url(#SVG_1_TotalValue)" ></line><line x1="62.08898162841797" y1="276" x2="68.08898162841797" y2="276" class="idvc2_chart_axis_hot"></line><text x="58.08898162841797" y="276" class="" style="text-anchor: end;dominant-baseline: middle" fill="none">83.14</text>    </svg>  </g>  <g transform="translate(68, 1026)">    <svg id="horz_axis" viewBox="0 0 1414 24" width="1414" height="24">      <line x1="0" y1="0.5" x2="1414.501708984375" y2="0.5" class="idvc2_chart_axis"></line><line x1="78" y1="6" x2="78" y2="0" class="idvc2_chart_axis"></line><line x1="78" y1="6" x2="78" y2="0" class="idvc2_chart_axis_hot"></line><text x="78" y="10" class="idvc2_chart_axis_text" style="text-anchor: middle; dominant-baseline:text-before-edge;"> 0.001 </text><line x1="393" y1="6" x2="393" y2="0" class="idvc2_chart_axis"></line><line x1="393" y1="6" x2="393" y2="0" class="idvc2_chart_axis_hot"></line><text x="393" y="10" class="idvc2_chart_axis_text" style="text-anchor: middle; dominant-baseline:text-before-edge;"> 0.01 </text><line x1="708" y1="6" x2="708" y2="0" class="idvc2_chart_axis"></line><line x1="708" y1="6" x2="708" y2="0" class="idvc2_chart_axis_hot"></line><text x="708" y="10" class="idvc2_chart_axis_text" style="text-anchor: middle; dominant-baseline:text-before-edge;"> 0.1 </text><line x1="1023" y1="6" x2="1023" y2="0" class="idvc2_chart_axis"></line><line x1="1023" y1="6" x2="1023" y2="0" class="idvc2_chart_axis_hot"></line><text x="1023" y="10" class="idvc2_chart_axis_text" style="text-anchor: middle; dominant-baseline:text-before-edge;"> 1 </text><line x1="1338" y1="6" x2="1338" y2="0" class="idvc2_chart_axis"></line><line x1="1338" y1="6" x2="1338" y2="0" class="idvc2_chart_axis_hot"></line><text x="1338" y="10" class="idvc2_chart_axis_text" style="text-anchor: middle; dominant-baseline:text-before-edge;"> 10 </text><defs><marker id="SVG_2_TotalValue" markerWidth="6" markerHeight="10" refX="1" refY="5" orient="auto" markerUnits="userSpaceOnUse"><path d="M 0 0 L 0 10 L 6 5 L 0 0" class="idvc2_roofline_total_value_tick"></path></marker><marker id="SVG_2_TotalValueActive" markerWidth="6" markerHeight="10" refX="1" refY="5" orient="auto" markerUnits="userSpaceOnUse"><path d="M 0 0 L 0 10 L 6 5 L 0 0" class="idvc2_roofline_total_value_tick_active"></path></marker></defs><line x1="859" y1="6" x2="859" y2="0" class="idvc2_chart_axis idvc2_active" style="stroke: transparent; stroke-width:10; marker-start:url(#SVG_2_TotalValue)" ></line><line x1="859" y1="6" x2="859" y2="0" class="idvc2_chart_axis_hot"></line><text x="859" y="10" class="" style="text-anchor: middle; dominant-baseline:text-before-edge;" fill="none"> 0.3 </text>    </svg>  </g>  <g transform="translate(68, 0)">    <svg id="roofline_content" viewBox="0 0 1414 1026" width="1414" height="1026">      <g id="SVG_0_BackgroundLayer"><polygon fill="rgb(160, 30, 30)" style="opacity:0.14" points="1216,1026 1216,129 1415,129 1415,1026"></polygon><polygon fill="rgb(200, 40, 40)" style="opacity:0.1" points="930,1026 930,285 1216,129 1216,129 1216,1026"></polygon><polygon fill="rgb(240, 50, 50)" style="opacity:0.06" points="0,1026 0,790 930,285 930,1026"></polygon><line class="idvc2_roofline_total_line" x1="859" y1="1026" x2="859" y2="0"></line><line class="idvc2_roofline_grid_line" x1="1338" y1="1026" x2="1338" y2="0"></line><line class="idvc2_roofline_grid_line" x1="1023" y1="1026" x2="1023" y2="0"></line><line class="idvc2_roofline_grid_line" x1="708" y1="1026" x2="708" y2="0"></line><line class="idvc2_roofline_grid_line" x1="393" y1="1026" x2="393" y2="0"></line><line class="idvc2_roofline_grid_line" x1="78" y1="1026" x2="78" y2="0"></line><line class="idvc2_roofline_total_line" x1="0" y1="276" x2="1415" y2="276"></line><line class="idvc2_roofline_grid_line" x1="0" y1="947" x2="1415" y2="947"></line><line class="idvc2_roofline_grid_line" x1="0" y1="776" x2="1415" y2="776"></line><line class="idvc2_roofline_grid_line" x1="0" y1="605" x2="1415" y2="605"></line><line class="idvc2_roofline_grid_line" x1="0" y1="434" x2="1415" y2="434"></line><line class="idvc2_roofline_grid_line" x1="0" y1="262" x2="1415" y2="262"></line><line class="idvc2_roofline_grid_line" x1="0" y1="91" x2="1415" y2="91"></line><line class="idvc2_roofline_line_hotarea idvc2_active" x1="0" y1="790" x2="1297" y2="86"></line><line class="idvc2_roofline_line_hotarea idvc2_active" x1="1297" y1="86" x2="1415" y2="86"></line><line class="idvc2_roofline_line_hotarea idvc2_active" x1="1216" y1="129" x2="1415" y2="129"></line><line class="idvc2_roofline_line_hotarea idvc2_active" x1="1202" y1="137" x2="1415" y2="137"></line><line class="idvc2_roofline_line_hotarea idvc2_active" x1="1129" y1="177" x2="1415" y2="177"></line><line class="idvc2_roofline_line_hotarea idvc2_active" x1="930" y1="285" x2="1415" y2="285"></line><foreignObject class="zone_text_root idvc2_active" x="4.00212" y="989.99152" width="921.99576" height="20"><body xmlns="http://www.w3.org/1999/xhtml" class="zone_text_container"><div class="zone_text_container"><span class="zone_text_caption">Memory bound</span></div></body></foreignObject><foreignObject class="zone_text_root idvc2_active" x="934.00212" y="989.99152" width="277.99576" height="20"><body xmlns="http://www.w3.org/1999/xhtml" class="zone_text_container"><div class="zone_text_container"><span class="zone_text_caption">Bound by compute and memory roofs</span></div></body></foreignObject><foreignObject class="zone_text_root idvc2_active" x="1220.00212" y="989.99152" width="190.99576" height="20"><body xmlns="http://www.w3.org/1999/xhtml" class="zone_text_container"><div class="zone_text_container"><span class="zone_text_caption">Compute bound</span></div></body></foreignObject></g><g id="SVG_0_LoopsLayer"><circle class="roofline_loop idvc2_active" cx="858" cy="177" r="6" style="fill:yellow !important" ></circle><circle class="roofline_loop idvc2_active" cx="890" cy="252" r="6" style="fill:yellow !important" ></circle><circle class="roofline_loop idvc2_active" cx="977" cy="527" r="8" style="fill:red !important" ></circle><circle class="roofline_loop idvc2_active" cx="828" cy="316" r="4" style="fill:green !important" ></circle><circle class="roofline_loop idvc2_active" cx="803" cy="307" r="4" style="fill:green !important" ></circle><circle class="roofline_loop idvc2_active" cx="803" cy="309" r="4" style="fill:green !important" ></circle><circle class="roofline_loop idvc2_active" cx="812" cy="279" r="4" style="fill:green !important" ></circle><circle class="roofline_loop idvc2_active" cx="812" cy="281" r="4" style="fill:green !important" ></circle><circle class="roofline_loop idvc2_active" cx="778" cy="520" r="6" style="fill:yellow !important" ></circle><circle class="roofline_loop idvc2_active" cx="778" cy="510" r="6" style="fill:yellow !important" ></circle><circle class="roofline_loop idvc2_active" cx="778" cy="448" r="4" style="fill:green !important" ></circle><circle class="roofline_loop idvc2_active" cx="869" cy="301" r="4" style="fill:green !important" ></circle><circle class="roofline_loop idvc2_active" cx="123" cy="875" r="4" style="fill:green !important" ></circle><circle class="roofline_loop idvc2_active" cx="731" cy="425" r="4" style="fill:green !important" ></circle><circle class="roofline_loop idvc2_active" cx="782" cy="376" r="4" style="fill:green !important" ></circle><circle class="roofline_loop idvc2_active" cx="936" cy="527" r="4" style="fill:green !important" ></circle><circle class="roofline_loop idvc2_active" cx="421" cy="739" r="4" style="fill:green !important" ></circle><circle class="roofline_loop idvc2_active" cx="118" cy="941" r="4" style="fill:green !important" ></circle><circle class="roofline_loop idvc2_active" cx="525" cy="872" r="4" style="fill:green !important" ></circle><circle class="roofline_loop idvc2_active" cx="520" cy="760" r="4" style="fill:green !important" ></circle><circle class="roofline_loop idvc2_active idvc2_roofline_point_current idvc2_roofline_point_selected" cx="858" cy="180" r="6" style="fill:yellow !important" ></circle></g><g id="SVG_0_RoofsLayer"><line class="idvc2_roofline_line SPVectorFMAPeak" x1="1297" y1="86" x2="1415" y2="86"></line><line class="idvc2_roofline_line SPVectorAddPeak selected" x1="1216" y1="129" x2="1415" y2="129"></line><line class="idvc2_roofline_line DPVectorFMAPeak" x1="1202" y1="137" x2="1415" y2="137"></line><line class="idvc2_roofline_line DPVectorAddPeak" x1="1129" y1="177" x2="1415" y2="177"></line><line class="idvc2_roofline_line ScalarAddPeak" x1="930" y1="285" x2="1415" y2="285"></line><rect x="926.99841" y="281.99841" width="6.0031799999999995" height="6.0031799999999995" class="roofline_roofs_cross idvc2_active"></rect><line x1="930" y1="288.00159" x2="930" y2="1026" class="roofline_coord_line"></line><rect x="1125.99841" y="173.99841" width="6.0031799999999995" height="6.0031799999999995" class="roofline_roofs_cross idvc2_active"></rect><line x1="1129" y1="180.00159" x2="1129" y2="1026" class="roofline_coord_line"></line><rect x="1198.99841" y="133.99841" width="6.0031799999999995" height="6.0031799999999995" class="roofline_roofs_cross idvc2_active"></rect><line x1="1202" y1="140.00159" x2="1202" y2="1026" class="roofline_coord_line"></line><rect x="1212.99841" y="125.99841" width="6.0031799999999995" height="6.0031799999999995" class="roofline_roofs_cross idvc2_active"></rect><line x1="1216" y1="132.00159" x2="1216" y2="1026" class="roofline_coord_line"></line><rect x="1293.99841" y="82.99841" width="6.0031799999999995" height="6.0031799999999995" class="roofline_roofs_cross idvc2_active"></rect><line x1="1297" y1="89.00159" x2="1297" y2="1026" class="roofline_coord_line"></line><line class="idvc2_roofline_line DRAMBandwidth" x1="0" y1="790" x2="1297" y2="86" style=""></line><line class="idvc2_roofline_line selected" x1="0" y1="790" x2="1216" y2="129" style=""></line></g><g id="SVG_0_RoofsTextLayer"><text class="idvc2_chart_roofline_text" x="0" y="0" style="text-anchor: end; dominant-baseline:text-after-edge;" transform="matrix(1 0 0 1 1411 85)">SP Vector FMA Peak: 1079.03 GFLOPS</text><text class="idvc2_chart_roofline_text selected" x="0" y="0" style="text-anchor: end; dominant-baseline:text-after-edge;" transform="matrix(1 0 0 1 1411 128)">SP Vector Add Peak: 598.61 GFLOPS</text><text class="idvc2_chart_roofline_text" x="0" y="0" style="text-anchor: end; dominant-baseline:text-before-edge;" transform="matrix(1 0 0 1 1411 138)">DP Vector FMA Peak: 540.51 GFLOPS</text><text class="idvc2_chart_roofline_text" x="0" y="0" style="text-anchor: end; dominant-baseline:text-after-edge;" transform="matrix(1 0 0 1 1411 176)">DP Vector Add Peak: 315.77 GFLOPS</text><text class="idvc2_chart_roofline_text" x="0" y="0" style="text-anchor: end; dominant-baseline:text-after-edge;" transform="matrix(1 0 0 1 1411 284)">Scalar Add Peak: 73.65 GFLOPS</text><text class="idvc2_chart_roofline_text selected" x="0" y="0" style="dominant-baseline:text-after-edge;" transform="matrix(0.878878 -0.477047 0.477047 0.878878 9.26757 783.832)">DRAM Bandwidth: 145.55 GB/sec</text></g><g id="SVG_0_ForegroundLayer"><line x1="839" y1="276" x2="879" y2="276" class="idvc2_chart_roofline_center_marker"></line><line x1="859" y1="256" x2="859" y2="296" class="idvc2_chart_roofline_center_marker"></line><use xlink:href="#SVG_0_expanderTemplate" class="roofline_expander idvc2_active" x="-118.253975" y="-105.50265"></use><text class="idvc2_roofline_roof_crossing_label" x="-100" y="-100" filter="url(#SVG_0_TextBackground)" style="text-anchor:end; dominant-baseline: middle;"><tspan class="idvc2_roofline_roof_crossing_label_value"></tspan><tspan class="idvc2_roofline_roof_crossing_label_measure"> GFLOPS </tspan><tspan class="idvc2_roofline_roof_crossing_label_gain_x">(</tspan><tspan class="idvc2_roofline_roof_crossing_label_gain"></tspan><tspan class="idvc2_roofline_roof_crossing_label_gain_x">x)</tspan></text><text class="idvc2_roofline_roof_crossing_label" x="-100" y="-100" filter="url(#SVG_0_TextBackground)" style="text-anchor:end; dominant-baseline: middle;"><tspan class="idvc2_roofline_roof_crossing_label_value">3.68</tspan><tspan class="idvc2_roofline_roof_crossing_label_measure"> GFLOPS </tspan><tspan class="idvc2_roofline_roof_crossing_label_gain_x">(</tspan><tspan class="idvc2_roofline_roof_crossing_label_gain">30</tspan><tspan class="idvc2_roofline_roof_crossing_label_gain_x">x)</tspan></text><use xlink:href="#SVG_0_crossingTemplate" class="idvc2_roofline_roof_crossing" x="-100" y="-100"></use><use xlink:href="#SVG_0_crossingTemplate" class="idvc2_roofline_roof_crossing" x="-100" y="-100"></use><line x1="-100" y1="0" x2="-100" y2="0" class="idvc2_roofline_roof_crossing_line"></line></g><rect x="0" y="0" width="0" height="0" class="idvc2_chart_selection"></rect><defs><filter id="SVG_0_TextBackground" x="0" y="0" width="1" height="1"><feFlood flood-color="white"></feFlood><feComposite in="SourceGraphic"></feComposite></filter></defs><defs id="SVG_0_line_arrows"><marker id="SVG_0_loops_matching_arrow" markerWidth="9.004769999999999" markerHeight="9.004769999999999" refX="9.004769999999999" refY="5" orient="auto"><path d="M 1.00053 1.00053 L 1.00053 8.00424 L 8.00424 5 L 1.00053 1.00053" class="idvc2_roofline_loops_matching_arrow"></path></marker><marker id="SVG_0_ChildArrow" markerWidth="9.004769999999999" markerHeight="9.004769999999999" refX="9.004769999999999" refY="5" orient="auto"><path d="M 1.00053 1.00053 L 1.00053 8.00424 L 8.00424 5 L 1.00053 1.00053" class="roofline_child_arrow"></path></marker><marker id="SVG_0_ParentArrow" markerWidth="9.004769999999999" markerHeight="9.004769999999999" refX="0" refY="5" orient="auto"><path d="M 1.00053 1.00053 L 1.00053 8.00424 L 8.00424 5 L 1.00053 1.00053" class="roofline_parent_arrow"></path></marker></defs><defs id="SVG_0_fill_patterns"><pattern id="SVG_0_loopFill-6-4-cl" patternContentUnits="objectBoundingBox" width="100%" height="100%"><circle cx=".5" cy=".5" r=".5" fill="white"></circle><circle cx=".5" cy=".5" r="0.3333333333333333" fill="green" stroke="black" stroke-width="0.05"></circle></pattern><pattern id="SVG_0_loopFill-8-4-cl" patternContentUnits="objectBoundingBox" width="100%" height="100%"><circle cx=".5" cy=".5" r=".5" fill="white"></circle><circle cx=".5" cy=".5" r="0.25" fill="green" stroke="black" stroke-width="0.05"></circle></pattern><pattern id="SVG_0_loopFill-8-6-cl" patternContentUnits="objectBoundingBox" width="100%" height="100%"><circle cx=".5" cy=".5" r=".5" fill="white"></circle><circle cx=".5" cy=".5" r="0.375" fill="yellow" stroke="black" stroke-width="0.05"></circle></pattern></defs><defs><g id="SVG_0_expanderTemplate"><rect x="0" y="0" width="11.005299999999998" height="11.005299999999998" class=""></rect><line x1="2.00106" y1="5.502649999999999" x2="9.00424" y2="5.502649999999999" class="roofline_expander_horz_line"></line><line x1="5.502649999999999" y1="2.00106" x2="5.502649999999999" y2="9.00424" class="roofline_expander_vert_line"></line></g></defs><defs><line id="SVG_0_crossingTemplate" x1="-4" y1="-4" x2="4" y2="4"></line></defs><text x="2" y="2" style="font-size: 90%; writing-mode: tb; dominant-baseline: text-after-edge">GFLOPS</text><text x="1410" y="1024" style="font-size: 90%; text-anchor: end; dominant-baseline: text-after-edge"><tspan>FLOP/Byte</tspan><tspan style="font-size: 90%;"> (Arithmetic Intensity)</tspan></text>    </svg>  </g>  </svg>